<svg width="333" height="383" viewBox="0 0 333 383" fill="none" xmlns="http://www.w3.org/2000/svg">
<path d="M22.56 329.4C25.8 329.4 28.56 329.92 30.84 330.96C33.12 332 34.86 333.5 36.06 335.46C37.26 337.42 37.86 339.8 37.86 342.6C37.86 345.4 37.26 347.78 36.06 349.74C34.86 351.7 33.12 353.2 30.84 354.24C28.56 355.28 25.8 355.8 22.56 355.8H14.7V369H4.38V329.4H22.56ZM20.94 348.06C23.1 348.06 24.72 347.62 25.8 346.74C26.92 345.82 27.48 344.44 27.48 342.6C27.48 340.76 26.92 339.4 25.8 338.52C24.72 337.6 23.1 337.14 20.94 337.14H14.7V348.06H20.94ZM43.7381 369V339H52.7381L53.1581 345.48C53.9181 343.24 55.0381 341.5 56.5181 340.26C58.0381 339.02 59.9581 338.4 62.2781 338.4C63.0381 338.4 63.6781 338.46 64.1981 338.58C64.7581 338.7 65.1981 338.86 65.5181 339.06L64.4981 347.46C64.0981 347.3 63.5781 347.18 62.9381 347.1C62.3381 346.98 61.5981 346.92 60.7181 346.92C59.5181 346.92 58.3981 347.18 57.3581 347.7C56.3181 348.22 55.4781 349 54.8381 350.04C54.2381 351.04 53.9381 352.32 53.9381 353.88V369H43.7381ZM83.4478 338.4C86.6078 338.4 89.3678 339.02 91.7278 340.26C94.1278 341.46 95.9878 343.24 97.3078 345.6C98.6678 347.92 99.3478 350.72 99.3478 354C99.3478 357.28 98.6678 360.1 97.3078 362.46C95.9878 364.78 94.1278 366.56 91.7278 367.8C89.3678 369 86.6078 369.6 83.4478 369.6C80.3678 369.6 77.6278 369 75.2278 367.8C72.8278 366.56 70.9478 364.78 69.5878 362.46C68.2678 360.1 67.6078 357.28 67.6078 354C67.6078 350.72 68.2678 347.92 69.5878 345.6C70.9478 343.24 72.8278 341.46 75.2278 340.26C77.6278 339.02 80.3678 338.4 83.4478 338.4ZM83.4478 345.66C82.2878 345.66 81.2878 345.94 80.4478 346.5C79.6078 347.06 78.9678 347.96 78.5278 349.2C78.0878 350.44 77.8678 352.04 77.8678 354C77.8678 355.96 78.0878 357.56 78.5278 358.8C78.9678 360 79.6078 360.9 80.4478 361.5C81.2878 362.06 82.2878 362.34 83.4478 362.34C84.6478 362.34 85.6678 362.06 86.5078 361.5C87.3478 360.9 87.9878 360 88.4278 358.8C88.8678 357.56 89.0878 355.96 89.0878 354C89.0878 352.04 88.8678 350.44 88.4278 349.2C87.9878 347.96 87.3478 347.06 86.5078 346.5C85.6678 345.94 84.6478 345.66 83.4478 345.66ZM105.63 369V329.4H124.89C129.77 329.44 133.37 330.38 135.69 332.22C138.01 334.02 139.17 336.64 139.17 340.08C139.17 342.32 138.51 344.26 137.19 345.9C135.87 347.5 133.85 348.52 131.13 348.96V349.02C134.17 349.42 136.43 350.48 137.91 352.2C139.43 353.88 140.19 355.92 140.19 358.32C140.19 361.72 138.99 364.36 136.59 366.24C134.19 368.08 130.59 369 125.79 369H105.63ZM115.59 361.74H124.05C125.93 361.74 127.33 361.36 128.25 360.6C129.17 359.84 129.63 358.74 129.63 357.3C129.63 355.9 129.17 354.84 128.25 354.12C127.33 353.36 125.93 352.98 124.05 352.98H115.59V361.74ZM115.59 345.6H123.09C126.77 345.6 128.61 344.16 128.61 341.28C128.61 338.4 126.77 336.96 123.09 336.96H115.59V345.6ZM160.206 338.4C163.366 338.4 166.126 339.02 168.486 340.26C170.886 341.46 172.746 343.24 174.066 345.6C175.426 347.92 176.106 350.72 176.106 354C176.106 357.28 175.426 360.1 174.066 362.46C172.746 364.78 170.886 366.56 168.486 367.8C166.126 369 163.366 369.6 160.206 369.6C157.126 369.6 154.386 369 151.986 367.8C149.586 366.56 147.706 364.78 146.346 362.46C145.026 360.1 144.366 357.28 144.366 354C144.366 350.72 145.026 347.92 146.346 345.6C147.706 343.24 149.586 341.46 151.986 340.26C154.386 339.02 157.126 338.4 160.206 338.4ZM160.206 345.66C159.046 345.66 158.046 345.94 157.206 346.5C156.366 347.06 155.726 347.96 155.286 349.2C154.846 350.44 154.626 352.04 154.626 354C154.626 355.96 154.846 357.56 155.286 358.8C155.726 360 156.366 360.9 157.206 361.5C158.046 362.06 159.046 362.34 160.206 362.34C161.406 362.34 162.426 362.06 163.266 361.5C164.106 360.9 164.746 360 165.186 358.8C165.626 357.56 165.846 355.96 165.846 354C165.846 352.04 165.626 350.44 165.186 349.2C164.746 347.96 164.106 347.06 163.266 346.5C162.426 345.94 161.406 345.66 160.206 345.66ZM196.124 338.4C199.284 338.4 202.044 339.02 204.404 340.26C206.804 341.46 208.664 343.24 209.984 345.6C211.344 347.92 212.024 350.72 212.024 354C212.024 357.28 211.344 360.1 209.984 362.46C208.664 364.78 206.804 366.56 204.404 367.8C202.044 369 199.284 369.6 196.124 369.6C193.044 369.6 190.304 369 187.904 367.8C185.504 366.56 183.624 364.78 182.264 362.46C180.944 360.1 180.284 357.28 180.284 354C180.284 350.72 180.944 347.92 182.264 345.6C183.624 343.24 185.504 341.46 187.904 340.26C190.304 339.02 193.044 338.4 196.124 338.4ZM196.124 345.66C194.964 345.66 193.964 345.94 193.124 346.5C192.284 347.06 191.644 347.96 191.204 349.2C190.764 350.44 190.544 352.04 190.544 354C190.544 355.96 190.764 357.56 191.204 358.8C191.644 360 192.284 360.9 193.124 361.5C193.964 362.06 194.964 362.34 196.124 362.34C197.324 362.34 198.344 362.06 199.184 361.5C200.024 360.9 200.664 360 201.104 358.8C201.544 357.56 201.764 355.96 201.764 354C201.764 352.04 201.544 350.44 201.104 349.2C200.664 347.96 200.024 347.06 199.184 346.5C198.344 345.94 197.324 345.66 196.124 345.66ZM230.362 369.6C227.362 369.6 224.562 369.12 221.962 368.16C219.402 367.16 217.282 365.74 215.602 363.9L220.402 358.26C221.402 359.54 222.722 360.62 224.362 361.5C226.042 362.34 227.902 362.76 229.942 362.76C231.182 362.76 232.202 362.58 233.002 362.22C233.802 361.86 234.202 361.3 234.202 360.54C234.202 359.98 234.002 359.54 233.602 359.22C233.202 358.86 232.402 358.56 231.202 358.32L227.002 357.48C223.242 356.72 220.562 355.6 218.962 354.12C217.402 352.6 216.622 350.62 216.622 348.18C216.622 346.54 217.122 344.98 218.122 343.5C219.122 341.98 220.662 340.76 222.742 339.84C224.822 338.88 227.482 338.4 230.722 338.4C233.762 338.4 236.442 338.84 238.762 339.72C241.082 340.6 242.922 341.88 244.282 343.56L239.422 349.08C238.462 347.88 237.222 346.94 235.702 346.26C234.182 345.58 232.662 345.24 231.142 345.24C230.182 345.24 229.362 345.34 228.682 345.54C228.042 345.7 227.562 345.94 227.242 346.26C226.922 346.58 226.762 346.98 226.762 347.46C226.762 347.98 227.002 348.44 227.482 348.84C228.002 349.2 228.942 349.52 230.302 349.8L235.762 350.88C238.842 351.44 241.062 352.46 242.422 353.94C243.782 355.42 244.462 357.2 244.462 359.28C244.462 361.24 243.942 363 242.902 364.56C241.862 366.12 240.302 367.36 238.222 368.28C236.142 369.16 233.522 369.6 230.362 369.6ZM262.294 329.46V358.32C262.294 359.76 262.634 360.8 263.314 361.44C264.034 362.04 265.014 362.34 266.254 362.34C267.214 362.34 268.034 362.24 268.714 362.04C269.434 361.8 270.074 361.46 270.634 361.02L271.714 367.32C270.714 368.04 269.454 368.6 267.934 369C266.414 369.4 264.854 369.6 263.254 369.6C260.974 369.6 258.994 369.28 257.314 368.64C255.674 368 254.394 366.98 253.474 365.58C252.594 364.18 252.134 362.32 252.094 360V332.28L262.294 329.46ZM271.234 339V346.26H246.934V339H271.234ZM290.585 369.6C287.265 369.6 284.385 368.98 281.945 367.74C279.545 366.5 277.685 364.72 276.365 362.4C275.045 360.08 274.385 357.28 274.385 354C274.385 350.72 275.045 347.92 276.365 345.6C277.685 343.28 279.525 341.5 281.885 340.26C284.285 339.02 287.025 338.4 290.105 338.4C293.265 338.4 295.945 339.02 298.145 340.26C300.385 341.46 302.085 343.14 303.245 345.3C304.405 347.42 304.985 349.86 304.985 352.62C304.985 353.34 304.965 354.06 304.925 354.78C304.885 355.5 304.825 356.1 304.745 356.58H280.985V351.12H300.245L295.385 352.98C295.385 350.58 294.945 348.74 294.065 347.46C293.225 346.18 291.905 345.54 290.105 345.54C288.825 345.54 287.725 345.84 286.805 346.44C285.925 347.04 285.245 347.98 284.765 349.26C284.325 350.54 284.105 352.18 284.105 354.18C284.105 356.14 284.365 357.74 284.885 358.98C285.405 360.18 286.145 361.06 287.105 361.62C288.065 362.14 289.225 362.4 290.585 362.4C292.105 362.4 293.305 362.1 294.185 361.5C295.105 360.9 295.785 360.06 296.225 358.98L304.385 361.68C303.825 363.4 302.845 364.86 301.445 366.06C300.085 367.22 298.445 368.1 296.525 368.7C294.645 369.3 292.665 369.6 290.585 369.6ZM310.691 369V339H319.691L320.111 345.48C320.871 343.24 321.991 341.5 323.471 340.26C324.991 339.02 326.911 338.4 329.231 338.4C329.991 338.4 330.631 338.46 331.151 338.58C331.711 338.7 332.151 338.86 332.471 339.06L331.451 347.46C331.051 347.3 330.531 347.18 329.891 347.1C329.291 346.98 328.551 346.92 327.671 346.92C326.471 346.92 325.351 347.18 324.311 347.7C323.271 348.22 322.431 349 321.791 350.04C321.191 351.04 320.891 352.32 320.891 353.88V369H310.691Z" fill="white"/>
<path d="M180 41.5H145V123.5L85.5 65.5L60.3441 91.3886L117.39 148.691H37V184H118.037L59.5 243.5L85.5 269L145 210.5V292.886H180V210.5L238.5 269.5L264.29 243.919L206.5 183.98H288.038L288.038 148.691H180V41.5Z" fill="white"/>
<path d="M294.5 36.5H199V0H330.5V132H294.5V36.5Z" fill="white"/>
</svg>
